# xmcd
#
# Track frame offsets:
#	150
#	14802
#	29630
#	55757
#	73835
#	86472
#	104862
#	122015
#	140537
#	157432
#	181497
#	197272
#
# Disc length: 2877
#
# Revision: 1
# Processed by: cddbd v1.5.1PL0 Copyright (c) Steve Scherf et al.
# Submitted via: CDnGo 1.95
# Normalized: r0:DSETVAR1,TDELIM( - )
#
DISCID=b60b3b0c
DTITLE=Various Artist - Farm Aid - Volume One [CD2]
DYEAR=2000
DGENRE=Country
TTITLE0=Beck and Willie Nelson - Peach Picking Time Down In Georgia
TTITLE1=Johnny Cash - Folsom Prison Blues
TTITLE2=Susan Tedeschi - It Hurt So Bad
TTITLE3=Keb Mo' - Just Like You
TTITLE4=Dwight Yoakam - Guitars, Cadillacs
TTITLE5=Deana Carter - We Danced Anyway
TTITLE6=The Highwaymen - I've Always Been Crazy
TTITLE7=Los Lobos - One Time One Night
TTITLE8=The Highwaymen - Best Of All Possible Worlds
TTITLE9=Marty Stuart - Now That's Country
TTITLE10=Willie Nelson - Sitting In Limbo
TTITLE11=Neil Young - Mother Earth
EXTD=
EXTT0=
EXTT1=
EXTT2=
EXTT3=
EXTT4=
EXTT5=
EXTT6=
EXTT7=
EXTT8=
EXTT9=
EXTT10=
EXTT11=
PLAYORDER=
